<?xml version="1.0" standalone="no"?><!-- Generator: Gravit.io --><svg xmlns="http://www.w3.org/2000/svg" xmlns:xlink="http://www.w3.org/1999/xlink" style="isolation:isolate" viewBox="0 0 512 512" width="512" height="512"><defs><clipPath id="_clipPath_2tJ9RjoI1oMWiDqoqHk2KsgpaSvXMj7x"><rect width="512" height="512"/></clipPath></defs><g clip-path="url(#_clipPath_2tJ9RjoI1oMWiDqoqHk2KsgpaSvXMj7x)"><path d=" M 370.667 384.459 C 374.202 384.817 377.788 385 381.417 385 C 439.759 385 487.125 337.634 487.125 279.292 C 487.125 220.95 439.759 173.583 381.417 173.583 C 361.94 173.583 343.687 178.862 328.016 188.072 C 305.266 151.418 264.65 127 218.375 127 C 156.132 127 104.126 171.178 92.055 229.871 C 54.122 235.111 24.875 267.698 24.875 307.063 C 24.875 350.077 59.798 385 102.813 385 L 102.813 385 L 173.453 385 L 218.375 385 L 218.375 385 L 315.256 385 L 370.667 385 L 370.667 384.459 Z  M 289.528 229.191 L 244.354 191.855 L 185.677 240.351 L 127 288.847 L 173.453 288.847 L 173.453 385 L 315.256 385 L 315.256 288.847 L 361.708 288.847 L 316.534 251.511 L 316.534 216.163 L 289.528 216.163 L 289.528 229.191 Z " fill-rule="evenodd" fill="rgb(0,150,136)"/></g></svg>